# xmcd
#
# Track frame offsets:
#	150
#	15995
#	33421
#	52324
#	75486
#	95139
#	112631
#	136424
#	156747
#	175538
#	208966
#	227847
#	255754
#	274955
#	291861
#	318160
#
# Disc length: 4517 seconds
#
# Revision: 1
# Processed by: cddbd v1.5.1PL0 Copyright (c) Steve Scherf et al.
# Submitted via: EasyCDDAExtractor 7.0.4.1
#
DISCID=da11a310
DTITLE=Rohff - La Fierté Des Notres - Cd1
DYEAR=2004
DGENRE=Hip-Hop
TTITLE0=Intro - La Fierté Des Notres
TTITLE1=Nouveau Rap
TTITLE2=Le Milieu
TTITLE3=La Vie Continue
TTITLE4=Ca Fait Plaisir (Feat. Intouchable)
TTITLE5=Dur D'etre Peace (Feat. Janice)
TTITLE6=Pleure Pas
TTITLE7=Petrole (Feat. Kayna Samet)
TTITLE8=Trop D'energie (Feat. Mohamed Lamine)
TTITLE9=Message A La Racaille
TTITLE10=Le Coeur D'une Femme
TTITLE11=Souvenirs
TTITLE12=Charisme (Feat. Wallen)
TTITLE13=Le Son Qui Tue (Feat. Natty)
TTITLE14=Le Son De La Hagra (Feat. Expression Direkt)
TTITLE15=Mal Aimé (Feat. Kerry James)
EXTD=
EXTT0=
EXTT1=
EXTT2=
EXTT3=
EXTT4=
EXTT5=
EXTT6=
EXTT7=
EXTT8=
EXTT9=
EXTT10=
EXTT11=
EXTT12=
EXTT13=
EXTT14=
EXTT15=
PLAYORDER=
